<svg width="175" height="80" viewBox="0 0 175 80" fill="none" xmlns="http://www.w3.org/2000/svg">
<path d="M0.0205078 20.6788H7.02465V39.4915L15.939 20.6788H22.9432L14.6076 37.1038L23.0734 65.3084H15.7509L9.83209 45.4393L7.02465 51.0686V65.265H0.0205078V20.6788Z" fill="white"/>
<path d="M28.4857 20.6788H35.4898V65.2506H28.4857V20.6788Z" fill="white"/>
<path d="M42.8123 20.6788H49.8165V39.4915L58.7308 20.6788H65.735L57.3995 37.1038L65.8652 65.3084H58.5427L52.6239 45.4393L49.8165 51.0686V65.265H42.8123V20.6788Z" fill="white"/>
<path d="M72.2326 63.0509C70.351 60.7073 69.4164 57.7434 69.6133 54.7444V52.1974H76.2412V55.2509C76.2412 58.1451 77.4568 59.5923 79.8735 59.5923C80.3732 59.6258 80.8742 59.5499 81.3416 59.37C81.809 59.19 82.2315 58.9103 82.5797 58.5503C83.2796 57.5559 83.6075 56.3469 83.5058 55.1351C83.5354 53.4053 83.0953 51.6998 82.2323 50.2003C80.9171 48.2725 79.3279 46.5467 77.5147 45.0775C75.1368 43.1204 73.0937 40.7889 71.4656 38.1746C70.3088 36.0294 69.7256 33.6218 69.7725 31.185C69.5867 28.2131 70.5445 25.2826 72.4497 22.9942C73.4675 21.9908 74.6862 21.2142 76.0255 20.7154C77.3649 20.2166 78.7946 20.0068 80.2208 20.0999C81.6237 20.0005 83.0313 20.2079 84.3459 20.7078C85.6605 21.2076 86.8503 21.9878 87.8328 22.9942C89.6873 25.3557 90.6046 28.3189 90.4087 31.3152V33.1531H83.7518V30.8087C83.8551 29.6257 83.5429 28.4436 82.8691 27.4658C82.5363 27.1123 82.1277 26.8388 81.6741 26.6658C81.2204 26.4929 80.7334 26.425 80.2498 26.4673C77.9199 26.4673 76.7477 27.9144 76.7477 30.7364C76.7415 32.3349 77.1935 33.9018 78.0501 35.2514C79.3881 37.1616 80.9856 38.8761 82.7967 40.3453C85.2114 42.2813 87.2601 44.6338 88.8458 47.2916C90.0009 49.556 90.5729 52.0729 90.51 54.6141C90.7085 57.6587 89.741 60.6648 87.8038 63.022C86.7744 64.0386 85.5392 64.8229 84.1812 65.3222C82.8233 65.8214 81.3742 66.024 79.9314 65.9162C78.5173 66.0234 77.0968 65.8227 75.7677 65.3281C74.4386 64.8334 73.2326 64.0565 72.2326 63.0509Z" fill="white"/>
<path d="M98.8165 63.0799C96.9294 60.8226 95.9813 57.9267 96.1682 54.9904V31.0547C95.9828 28.1186 96.9307 25.2233 98.8165 22.9652C99.8146 21.9637 101.015 21.1873 102.338 20.6881C103.661 20.1889 105.075 19.9785 106.486 20.071C107.897 19.9775 109.312 20.1875 110.635 20.6868C111.958 21.186 113.159 21.963 114.156 22.9652C116.042 25.2233 116.99 28.1186 116.804 31.0547V35.7724H110.177V30.6061C110.177 27.8566 109.019 26.4673 106.674 26.4673C104.33 26.4673 103.172 27.9144 103.172 30.6061V55.5113C103.172 58.2175 104.345 59.5778 106.674 59.5778C109.004 59.5778 110.177 58.2175 110.177 55.5113V48.6953H116.804V54.9904C116.991 57.9267 116.043 60.8226 114.156 63.0799C113.159 64.0821 111.958 64.8591 110.635 65.3583C109.312 65.8576 107.897 66.0676 106.486 65.9741C105.075 66.0666 103.661 65.8562 102.338 65.357C101.015 64.8578 99.8146 64.0814 98.8165 63.0799Z" fill="white"/>
<path d="M125.458 63.022C123.512 60.7192 122.532 57.7532 122.723 54.7444V31.3152C122.531 28.3062 123.511 25.3396 125.458 23.0376C127.651 21.1414 130.453 20.0979 133.352 20.0979C136.251 20.0979 139.054 21.1414 141.247 23.0376C143.207 25.3328 144.194 28.3031 143.996 31.3152V54.7444C144.194 57.7565 143.207 60.7267 141.247 63.022C140.211 64.0336 138.972 64.8145 137.613 65.3133C136.254 65.8122 134.804 66.0176 133.36 65.9162C131.913 66.0188 130.461 65.8139 129.099 65.3151C127.737 64.8162 126.496 64.0347 125.458 63.022ZM137.035 55.193V30.8087C137.035 27.9144 135.82 26.4673 133.403 26.4673C130.986 26.4673 129.771 27.9144 129.771 30.8087V55.193C129.771 58.0872 130.986 59.5344 133.403 59.5344C135.82 59.5344 136.992 58.1162 136.992 55.193H137.035Z" fill="white"/>
<path d="M149.437 11.4894C149.287 10.917 149.2 10.3298 149.177 9.73841C149.07 7.62101 149.807 5.54763 151.225 3.97193C152.644 2.39623 154.628 1.4465 156.745 1.33054L156.876 3.31312C156.439 3.31075 156.005 3.37417 155.588 3.50125C154.83 3.71162 154.121 4.06987 153.502 4.55535C152.883 5.04083 152.367 5.64395 151.982 6.32997C151.597 7.01599 151.352 7.77135 151.261 8.55253C151.169 9.33372 151.233 10.1253 151.449 10.8816L153.706 19.058L151.767 19.6368L149.437 11.4894Z" fill="#4A6F5D"/>
<path d="M146.847 68.333H120.205V71.2417H146.847V68.333Z" fill="#273A30"/>
<path d="M100.162 69.8814C100.159 71.7259 100.704 73.5297 101.727 75.0645C102.75 76.5993 104.205 77.7961 105.909 78.5032C107.612 79.2104 109.487 79.3962 111.297 79.0371C113.106 78.6779 114.768 77.79 116.072 76.4858C117.376 75.1815 118.264 73.5196 118.623 71.7105C118.982 69.9013 118.796 68.0263 118.089 66.3227C117.382 64.6192 116.185 63.1639 114.651 62.1409C113.116 61.118 111.312 60.5735 109.467 60.5763C108.244 60.5725 107.033 60.8106 105.902 61.2768C104.771 61.7431 103.744 62.4284 102.879 63.2932C102.014 64.158 101.329 65.1853 100.863 66.316C100.397 67.4467 100.159 68.6584 100.162 69.8814ZM109.467 75.3226C108.009 75.3226 106.61 74.7433 105.579 73.712C104.548 72.6807 103.968 71.282 103.968 69.8235C103.968 68.7359 104.291 67.6727 104.895 66.7684C105.499 65.864 106.358 65.1592 107.363 64.743C108.368 64.3268 109.474 64.2179 110.54 64.4301C111.607 64.6422 112.587 65.166 113.356 65.9351C114.125 66.7041 114.649 67.684 114.861 68.7507C115.073 69.8174 114.964 70.9231 114.548 71.9279C114.132 72.9328 113.427 73.7916 112.523 74.3959C111.618 75.0001 110.555 75.3226 109.467 75.3226Z" fill="#273A30"/>
<path d="M165.674 60.6342C164.455 60.6285 163.246 60.8632 162.118 61.3251C160.989 61.7869 159.963 62.4666 159.097 63.3255C158.232 64.1844 157.544 65.2055 157.073 66.3304C156.603 67.4554 156.358 68.662 156.355 69.8814C156.352 71.7253 156.896 73.5285 157.918 75.063C158.941 76.5975 160.395 77.7943 162.098 78.5019C163.8 79.2095 165.675 79.3961 167.483 79.0381C169.292 78.6802 170.954 77.7937 172.259 76.4909C173.564 75.1881 174.453 73.5276 174.814 71.7194C175.174 69.9111 174.991 68.0366 174.286 66.3328C173.581 64.629 172.386 63.1726 170.853 62.148C169.32 61.1233 167.518 60.5763 165.674 60.5763V60.6342ZM165.674 75.3805C164.216 75.3805 162.817 74.8011 161.786 73.7699C160.754 72.7386 160.175 71.3399 160.175 69.8814C160.175 68.7938 160.498 67.7306 161.102 66.8263C161.706 65.9219 162.565 65.2171 163.57 64.8009C164.575 64.3847 165.68 64.2758 166.747 64.4879C167.814 64.7001 168.794 65.2239 169.563 65.9929C170.332 66.762 170.855 67.7419 171.068 68.8086C171.28 69.8753 171.171 70.981 170.755 71.9858C170.339 72.9907 169.634 73.8495 168.729 74.4538C167.825 75.058 166.762 75.3805 165.674 75.3805Z" fill="#273A30"/>
<path d="M153.364 15.2067L150.596 15.8886L156.023 37.921L158.792 37.239L153.364 15.2067Z" fill="#4A6F5D"/>
<path d="M153.481 14.6937L150.278 15.4829L150.696 17.1831L153.9 16.3939L153.481 14.6937Z" fill="#273A30"/>
<path d="M152.866 13.6902L150.421 14.2926L150.715 15.4869L153.16 14.8846L152.866 13.6902Z" fill="#273A30"/>
<path d="M154.864 37.1616L159.524 35.9895L163.46 52.1684L159.452 55.7863L154.864 37.1616Z" fill="#4A6F5D"/>
<path d="M159.782 35.4071L154.316 36.7537L154.718 38.3836L160.184 37.037L159.782 35.4071Z" fill="#273A30"/>
<path d="M158.846 34.5501L154.701 35.5713L154.995 36.7656L159.14 35.7444L158.846 34.5501Z" fill="#273A30"/>
<path d="M161.854 48.0875L167.02 69.1723C167.121 69.5981 167.049 70.0465 166.822 70.4202C166.594 70.794 166.229 71.0631 165.804 71.1693H165.674C165.457 71.2299 165.231 71.2458 165.008 71.2162C164.785 71.1865 164.57 71.112 164.376 70.997C164.183 70.882 164.015 70.729 163.882 70.5472C163.75 70.3654 163.655 70.1586 163.605 69.9393L158.424 48.8545C158.364 48.6378 158.348 48.411 158.377 48.1879C158.407 47.9649 158.481 47.7501 158.596 47.5567C158.711 47.3632 158.864 47.1951 159.046 47.0625C159.228 46.9299 159.435 46.8355 159.654 46.7851H159.784C160.231 46.6855 160.7 46.7664 161.087 47.0104C161.475 47.2543 161.75 47.6414 161.854 48.0875Z" fill="#4A6F5D"/>
<path d="M155.327 1.72127V1.59103C155.435 1.34221 155.592 1.11758 155.788 0.93047C155.985 0.74336 156.216 0.597573 156.47 0.501753C156.724 0.405933 156.994 0.36203 157.265 0.372647C157.536 0.383264 157.802 0.448185 158.048 0.563562L164.126 3.08158C164.596 3.29994 164.964 3.69021 165.156 4.17206C165.347 4.65392 165.346 5.1907 165.153 5.67195V5.8022C164.935 6.27234 164.545 6.64089 164.063 6.83202C163.581 7.02315 163.044 7.0223 162.563 6.82966L156.557 4.31165C156.302 4.22936 156.065 4.09559 155.863 3.91857C155.661 3.74155 155.497 3.52504 155.382 3.28237C155.267 3.03969 155.203 2.77599 155.193 2.50751C155.184 2.23904 155.229 1.97146 155.327 1.72127Z" fill="#273A30"/>
<path d="M164.372 8.13209C165.73 8.13209 166.832 7.03065 166.832 5.67195C166.832 4.31326 165.73 3.21182 164.372 3.21182C163.013 3.21182 161.912 4.31326 161.912 5.67195C161.912 7.03065 163.013 8.13209 164.372 8.13209Z" fill="#273A30"/>
<path d="M163.475 52.154L152.158 67.7396L145.241 68.8395V61.7919C145.227 59.3319 145.899 56.9168 147.18 54.8167L149.958 50.2872C151.17 48.3099 152.874 46.6802 154.902 45.5568C156.931 44.4333 159.216 43.8544 161.535 43.8764L163.475 52.154Z" fill="#273A30"/>
<path d="M117.948 73.7597L109.019 71.3285C108.599 71.2172 108.24 70.9435 108.021 70.5677C107.803 70.1918 107.743 69.7445 107.854 69.3243C107.965 68.904 108.239 68.5451 108.615 68.3267C108.991 68.1082 109.438 68.048 109.858 68.1593L118.541 70.4892H138.7C141.687 70.5033 144.634 69.7979 147.291 68.4327C149.949 67.0675 152.238 65.0826 153.967 62.6457L168.713 42.9212C168.972 42.5816 169.354 42.3577 169.777 42.298C170.199 42.2384 170.628 42.348 170.971 42.6029C171.311 42.864 171.536 43.2486 171.595 43.6737C171.655 44.0987 171.545 44.5302 171.289 44.8749L156.601 64.5125C154.591 67.38 151.917 69.7186 148.807 71.3288C145.698 72.939 142.245 73.7731 138.743 73.7597H117.948Z" fill="#4A6F5D"/>
<path d="M118.469 71.1115C118.309 68.0246 116.972 65.1165 114.731 62.9868C112.491 60.857 109.519 59.6679 106.428 59.6646H103.143C102.714 59.6646 102.301 59.4939 101.997 59.1899C101.693 58.8859 101.523 58.4737 101.523 58.0438C101.523 57.614 101.693 57.2017 101.997 56.8978C102.301 56.5938 102.714 56.423 103.143 56.423H106.501C110.418 56.4106 114.189 57.9071 117.032 60.6017C119.875 63.2964 121.571 66.9823 121.768 70.8944C121.776 71.3237 121.618 71.7397 121.327 72.0552C121.036 72.3707 120.634 72.5615 120.205 72.5875C119.786 72.5923 119.38 72.4455 119.061 72.1742C118.742 71.903 118.531 71.5256 118.469 71.1115Z" fill="#4A6F5D"/>
<path d="M151.695 36.5973C151.163 33.8166 151.366 30.9451 152.285 28.2673C153.204 25.5894 154.806 23.198 156.934 21.33C158.945 19.5927 160.298 17.2162 160.764 14.5995C161.231 11.9827 160.782 9.28522 159.495 6.95991L158.525 5.07863L159.104 4.76026L160.074 6.64154C161.417 9.09253 161.88 11.9291 161.388 14.6801C160.896 17.4311 159.477 19.9309 157.368 21.7641C155.314 23.5404 153.766 25.8272 152.879 28.3936C151.992 30.96 151.798 33.715 152.317 36.3802L154.198 46.076L153.547 46.2062L151.695 36.5973Z" fill="#273A30"/>
</svg>
